<svg preserveAspectRatio="none" overflow="visible" style="display: block;" width="20" height="20" viewBox="0 0 20 20" fill="none" xmlns="http://www.w3.org/2000/svg">
<g id="System" clip-path="url(#clip0_0_114)">
<g id="Vector">
</g>
<path id="Vector_2" d="M10 17.5H5C4.55797 17.5 4.13405 17.3244 3.82149 17.0118C3.50893 16.6993 3.33333 16.2754 3.33333 15.8333V5.83333C3.33333 5.39131 3.50893 4.96738 3.82149 4.65482C4.13405 4.34226 4.55797 4.16667 5 4.16667H15C15.442 4.16667 15.8659 4.34226 16.1785 4.65482C16.4911 4.96738 16.6667 5.39131 16.6667 5.83333V10.8333" stroke="#FF0000" stroke-width="1.2" stroke-linecap="round" stroke-linejoin="round"/>
<path id="Vector_3" d="M13.3333 2.5V5.83333" stroke="#FF0000" stroke-width="1.2" stroke-linecap="round" stroke-linejoin="round"/>
<path id="Vector_4" d="M6.66667 2.5V5.83333" stroke="#FF0000" stroke-width="1.2" stroke-linecap="round" stroke-linejoin="round"/>
<path id="Vector_5" d="M3.33333 9.16667H16.6667" stroke="#FF0000" stroke-width="1.2" stroke-linecap="round" stroke-linejoin="round"/>
<path id="Vector_6" d="M13.3333 18.3333L17.5 14.1667" stroke="#FF0000" stroke-width="1.2" stroke-linecap="round" stroke-linejoin="round"/>
<path id="Vector_7" d="M17.5 17.9167V14.1667H13.75" stroke="#FF0000" stroke-width="1.2" stroke-linecap="round" stroke-linejoin="round"/>
</g>
<defs>
<clipPath id="clip0_0_114">
<rect width="20" height="20" fill="white"/>
</clipPath>
</defs>
</svg>
